<?xml version="1.0" encoding="UTF-8" standalone="no"?>
<svg
   width="16"
   height="16"
   viewBox="0 0 16 16"
   version="1.1"
   id="svg2"
   sodipodi:docname="ProfilePictureIcon.svg"
   inkscape:version="1.3 (0e150ed6c4, 2023-07-21)"
   xmlns:inkscape="http://www.inkscape.org/namespaces/inkscape"
   xmlns:sodipodi="http://sodipodi.sourceforge.net/DTD/sodipodi-0.dtd"
   xmlns="http://www.w3.org/2000/svg"
   xmlns:svg="http://www.w3.org/2000/svg">
  <defs
     id="defs2" />
  <sodipodi:namedview
     id="namedview2"
     pagecolor="#818181"
     bordercolor="#000000"
     borderopacity="0.25"
     inkscape:showpageshadow="2"
     inkscape:pageopacity="0.0"
     inkscape:pagecheckerboard="0"
     inkscape:deskcolor="#d1d1d1"
     showgrid="true"
     inkscape:zoom="36.63697"
     inkscape:cx="11.272766"
     inkscape:cy="6.8373558"
     inkscape:window-width="2560"
     inkscape:window-height="1025"
     inkscape:window-x="-8"
     inkscape:window-y="-8"
     inkscape:window-maximized="1"
     inkscape:current-layer="g2">
    <inkscape:grid
       id="grid2"
       units="px"
       originx="0"
       originy="0"
       spacingx="1"
       spacingy="1"
       empcolor="#0099e5"
       empopacity="0.30196078"
       color="#0099e5"
       opacity="0.14901961"
       empspacing="5"
       dotted="false"
       gridanglex="30"
       gridanglez="30"
       visible="true"
       snapvisiblegridlinesonly="true" />
  </sodipodi:namedview>
  <g
     fill="#fff"
     transform="scale(.01563)"
     id="g2">
    <circle
       style="fill:#000000;stroke-width:63.8914;fill-opacity:1"
       id="path2"
       cx="511.83624"
       cy="511.83621"
       r="511.83621" />
    <path
       d="m 216.88189,629.42929 110.2161,10.15148 q 8.70127,0.72511 10.87659,10.15149 l 2.90042,48.58209 95.71398,7.25106 5.80085,-44.23146 q 1.45021,-7.97616 10.87659,-10.87659 h 117.46716 q 9.42638,2.90043 10.87659,10.87659 l 5.80085,44.23146 95.71398,-7.25106 2.90042,-48.58209 q 2.17532,-9.42638 10.87659,-10.15149 l 110.2161,-10.15148 V 451.05323 q 21.75318,-28.27913 40.60594,-58.73358 -25.37871,-42.78125 -60.1838,-78.31144 -31.17955,14.50212 -59.45868,34.07998 -29.00424,-26.82892 -63.80932,-46.40678 5.07574,-36.9804 5.80084,-73.96081 -42.78125,-20.30296 -89.18803,-30.45445 -18.85275,31.17956 -33.35487,64.53443 -35.53019,-5.07574 -71.06038,0 -14.50212,-33.35487 -33.35487,-64.53443 -46.40678,10.15149 -89.18803,30.45445 0.7251,36.98041 5.80084,73.96081 -34.80508,19.57786 -63.80932,46.40678 -28.27913,-19.57786 -59.45868,-34.07998 -34.80509,35.53019 -60.1838,78.31144 18.85276,30.45445 40.60594,58.73358 z m 0,23.9285 v 28.27913 c 0,200.12923 589.51112,200.12923 589.51112,0 v -28.27913 l -97.1642,8.70127 -3.62553,50.03231 q -1.45021,7.25106 -10.15148,9.42637 l -117.46716,7.97617 q -8.70127,0 -11.6017,-7.97617 l -7.25105,-47.13188 h -94.26378 l -7.25105,47.13188 q -2.90043,7.97617 -11.6017,7.97617 L 328.5482,721.51774 q -8.70127,-2.17531 -10.15148,-9.42637 l -3.62553,-50.03231 z M 490.97193,514.13745 c 2.17532,-24.6536 39.88082,-24.6536 42.05614,0 v 62.35911 c -2.17532,24.6536 -39.88082,24.6536 -42.05614,0 z m 110.2161,8.70127 a 65.259535,65.259535 0 0 1 130.51907,0 65.259535,65.259535 0 0 1 -130.51907,0 z m -308.89513,0 a 65.259535,65.259535 0 0 1 130.51907,0 65.259535,65.259535 0 0 1 -130.51907,0"
       id="path1"
       style="stroke-width:0.725106" />
    <circle
       cx="363.35327"
       cy="527.18933"
       r="43.506355"
       id="circle1"
       style="stroke-width:0.725106" />
    <circle
       cx="660.64673"
       cy="527.18933"
       r="43.506355"
       id="circle2"
       style="stroke-width:0.725106" />
  </g>
</svg>
